<?xml version="1.0" standalone="no"?>
<!DOCTYPE svg PUBLIC "-//W3C//DTD SVG 20010904//EN"
 "http://www.w3.org/TR/2001/REC-SVG-20010904/DTD/svg10.dtd">
<svg version="1.0" xmlns="http://www.w3.org/2000/svg"
 width="263.000000pt" height="263.000000pt" viewBox="0 0 263.000000 263.000000"
 preserveAspectRatio="xMidYMid meet">
<metadata>
Created by potrace 1.14, written by Peter Selinger 2001-2017
</metadata>
<g transform="translate(0.000000,263.000000) scale(0.100000,-0.100000)"
fill="#000000" stroke="none">
<path d="M1372 2034 c-44 -12 -104 -52 -134 -88 -57 -67 -66 -71 -81 -34 -8
18 -23 40 -33 49 -20 17 -72 34 -89 29 -5 -1 -17 -3 -27 -2 -24 1 -85 -57
-111 -106 -20 -40 -28 -46 -111 -77 -49 -18 -92 -37 -95 -42 -3 -4 -13 -9 -21
-11 -19 -4 -105 -59 -145 -92 -117 -97 -252 -269 -305 -385 -50 -112 -77 -181
-84 -217 -3 -13 -8 -34 -12 -48 -3 -14 -8 -54 -11 -90 -4 -58 -1 -72 26 -124
24 -45 28 -62 19 -68 -7 -4 -18 -6 -24 -4 -5 2 -20 -1 -32 -8 -40 -22 -9 -37
103 -52 17 -2 50 -6 75 -10 42 -5 78 -7 305 -19 234 -13 329 -14 735 -14 519
1 650 2 650 9 0 3 28 5 63 6 91 1 321 18 387 28 88 14 110 20 110 32 0 16 -15
26 -44 29 -11 1 -24 3 -28 4 -15 2 -8 22 18 57 15 19 24 34 21 34 -2 0 1 16 7
35 12 34 9 85 -9 160 -13 55 -12 68 12 93 16 17 20 28 12 32 -7 5 -7 10 -2 13
6 4 10 19 9 34 -1 22 -16 39 -73 83 -52 40 -89 80 -130 140 -32 47 -79 107
-105 134 -27 28 -48 53 -48 58 0 4 -4 8 -8 8 -5 0 -20 9 -33 21 -50 44 -146
107 -209 136 -69 33 -130 58 -142 58 -14 0 -48 35 -48 50 0 8 -4 15 -9 15 -5
0 -13 9 -16 20 -3 11 -13 20 -21 20 -8 0 -14 6 -14 13 0 13 -72 62 -125 85
-41 19 -122 22 -173 6z"/>
</g>
</svg>
